<?xml version="1.0" standalone="no"?>
<!DOCTYPE svg PUBLIC "-//W3C//DTD SVG 20010904//EN"
 "http://www.w3.org/TR/2001/REC-SVG-20010904/DTD/svg10.dtd">
<svg version="1.0" xmlns="http://www.w3.org/2000/svg"
 width="256.000000pt" height="171.000000pt" viewBox="0 0 256.000000 171.000000"
 preserveAspectRatio="xMidYMid meet">

<g transform="translate(0.000000,171.000000) scale(0.100000,-0.100000)"
fill="#000000" stroke="none">
<path d="M858 1298 l-3 -63 -202 -3 -203 -2 0 -120 0 -120 95 0 c88 0 95 -1
95 -20 0 -17 7 -20 39 -20 38 0 38 0 48 -50 l10 -50 -198 0 c-170 0 -199 -2
-199 -15 0 -11 13 -15 53 -15 l53 0 -52 -282 c-59 -314 -59 -318 -41 -318 9 0
29 86 68 298 l54 297 129 3 c92 2 132 -1 137 -9 4 -7 13 -47 20 -91 l13 -78
67 0 c47 0 70 -4 79 -15 7 -8 22 -15 33 -15 18 0 19 -4 13 -61 -3 -34 -6 -99
-6 -145 l0 -83 -27 -3 c-19 -2 -29 -9 -30 -23 -2 -11 0 -14 3 -7 4 8 31 12 84
12 64 0 81 -3 90 -17 9 -16 10 -15 5 5 -5 18 -2 22 14 22 25 0 25 3 6 -50 -8
-23 -15 -44 -15 -46 0 -2 22 -4 48 -4 49 0 49 0 62 43 8 23 13 45 12 50 -1 4
18 7 43 7 51 0 43 -22 75 203 33 231 31 241 -55 285 l-40 21 418 1 c229 0 417
-3 417 -7 0 -7 98 -538 105 -571 3 -12 12 -22 20 -22 11 0 14 7 10 22 -5 24
-105 568 -105 574 0 1 23 4 52 6 30 2 53 8 56 16 3 9 -108 12 -533 12 -516 0
-537 -1 -575 -20 -22 -11 -45 -20 -53 -20 -10 0 -20 38 -37 131 -24 134 -37
159 -82 159 -14 0 -13 6 9 45 13 25 20 45 14 45 -21 0 -51 40 -51 70 0 36 29
54 74 47 19 -3 39 1 51 9 10 8 25 14 32 14 18 0 17 -35 -2 -50 -11 -9 -12 -17
-4 -31 11 -22 -4 -50 -40 -75 -26 -19 -26 -30 -1 -88 l21 -46 74 0 c68 0 74
-2 77 -21 3 -21 5 -20 36 11 17 19 32 28 32 22 0 -7 5 -12 10 -12 6 0 10 10
10 23 l1 22 18 -22 c18 -22 26 -23 165 -23 l146 0 0 160 0 160 -370 0 -369 0
-3 -62z m369 -105 c-21 -73 -24 -79 -32 -71 -8 7 37 148 45 143 4 -3 -1 -35
-13 -72z m-83 16 c-17 -18 -16 -20 6 -44 32 -34 13 -32 -22 2 l-28 27 27 28
c30 32 46 19 17 -13z m186 -20 c0 -12 -50 -52 -57 -45 -4 4 3 16 17 26 l25 19
-23 24 c-12 13 -19 27 -15 30 6 7 52 -40 53 -54z m-662 4 c-32 -2 -86 -2 -120
0 -35 2 -9 3 57 3 66 0 94 -1 63 -3z m0 -20 c-32 -2 -86 -2 -120 0 -35 2 -9 3
57 3 66 0 94 -1 63 -3z m0 -20 c-32 -2 -86 -2 -120 0 -35 2 -9 3 57 3 66 0 94
-1 63 -3z m0 -20 c-32 -2 -86 -2 -120 0 -35 2 -9 3 57 3 66 0 94 -1 63 -3z
m472 -503 c0 -6 -11 -37 -25 -70 -14 -33 -25 -73 -25 -89 0 -16 -9 -45 -20
-64 -11 -18 -21 -46 -22 -60 -1 -15 -8 -27 -15 -27 -10 0 -13 24 -13 93 0 50
-3 116 -6 145 -6 48 -5 52 14 52 12 0 27 7 34 15 15 16 78 20 78 5z"/>
<path d="M2160 1275 c0 -8 7 -15 15 -15 8 0 15 7 15 15 0 8 -7 15 -15 15 -8 0
-15 -7 -15 -15z"/>
<path d="M1696 1103 c-4 -16 -16 -58 -27 -95 l-20 -67 -82 -4 c-45 -1 32 -4
172 -5 140 -1 252 1 248 4 -3 3 -2 16 2 28 5 11 18 54 29 94 l20 72 -168 0
-168 0 -6 -27z m187 -10 c-29 -2 -78 -2 -110 0 -32 2 -8 3 52 3 61 0 87 -1 58
-3z m-10 -30 c-29 -2 -78 -2 -110 0 -32 2 -8 3 52 3 61 0 87 -1 58 -3z m-5
-20 c-32 -2 -84 -2 -115 0 -32 2 -6 3 57 3 63 0 89 -1 58 -3z"/>
<path d="M2095 1031 c-7 -12 12 -24 25 -16 11 7 4 25 -10 25 -5 0 -11 -4 -15
-9z"/>
<path d="M1252 983 c-28 -5 -24 -27 6 -31 17 -3 22 2 22 17 0 12 -1 20 -2 20
-2 -1 -13 -4 -26 -6z"/>
<path d="M2023 953 c-35 -13 -4 -23 73 -23 76 0 85 2 74 15 -12 15 -117 21
-147 8z"/>
<path d="M816 294 c-6 -15 -4 -15 11 -3 10 7 20 15 22 16 2 2 -3 3 -11 3 -9 0
-19 -7 -22 -16z"/>
</g>
</svg>
