<?xml version="1.0" standalone="no"?>
<!DOCTYPE svg PUBLIC "-//W3C//DTD SVG 20010904//EN"
 "http://www.w3.org/TR/2001/REC-SVG-20010904/DTD/svg10.dtd">
<svg version="1.0" xmlns="http://www.w3.org/2000/svg"
 width="481.000000pt" height="519.000000pt" viewBox="0 0 481.000000 519.000000"
 preserveAspectRatio="xMidYMid meet">

<g transform="translate(0.000000,519.000000) scale(0.100000,-0.100000)"
fill="#000000" stroke="none">
<path d="M3902 4800 c-6 -26 -6 -42 0 -46 15 -9 26 7 33 49 10 54 -19 51 -33
-3z"/>
<path d="M3106 4821 c-3 -4 6 -6 19 -3 19 3 27 -1 34 -19 6 -14 10 -18 10 -8
2 30 -48 54 -63 30z"/>
<path d="M3626 4821 c-9 -14 20 -81 35 -81 8 0 9 11 5 32 -7 38 -30 66 -40 49z"/>
<path d="M598 4723 c12 -2 30 -2 40 0 9 3 -1 5 -23 4 -22 0 -30 -2 -17 -4z"/>
<path d="M4132 4687 c-25 -27 -28 -47 -8 -47 13 0 56 49 56 64 0 14 -28 4 -48
-17z"/>
<path d="M3400 4666 c0 -15 45 -56 61 -56 17 0 8 21 -18 45 -32 28 -43 31 -43
11z"/>
<path d="M2031 4602 c-14 -26 -14 -97 0 -124 6 -11 9 -22 6 -24 -2 -2 -28 0
-57 6 -29 6 -55 9 -57 7 -2 -2 12 -24 32 -49 37 -49 105 -97 170 -118 47 -16
184 -17 238 -2 l37 10 0 -31 c1 -18 11 -52 24 -76 l23 -44 7 29 c14 57 33 74
79 74 50 0 81 -26 97 -80 15 -54 -21 -119 -69 -123 -26 -2 -26 -2 0 -44 l22
-34 22 38 c63 106 93 294 61 390 -9 27 -29 62 -45 77 -27 26 -103 52 -121 41
-4 -3 -11 6 -14 19 -11 43 -91 62 -298 72 -141 7 -146 6 -157 -14z"/>
<path d="M1007 4533 c-3 -5 -24 -97 -46 -206 -23 -109 -46 -210 -52 -223 -12
-34 -12 -34 11 -34 14 0 21 9 26 38 4 20 24 115 45 210 22 95 39 182 39 192 0
20 -16 35 -23 23z"/>
<path d="M4254 4466 c-10 -8 -16 -18 -12 -22 11 -10 71 9 76 24 5 17 -39 15
-64 -2z"/>
<path d="M3275 4440 c-10 -17 5 -27 48 -35 30 -6 37 -4 37 8 0 9 -10 19 -22
22 -13 4 -30 9 -40 11 -9 3 -19 0 -23 -6z"/>
<path d="M865 4400 c-5 -5 -28 -25 -50 -44 -33 -29 -37 -36 -23 -41 21 -8 107
53 108 78 0 18 -18 22 -35 7z"/>
<path d="M1170 4326 c0 -9 -29 -37 -65 -63 -59 -42 -73 -63 -41 -63 19 0 136
89 136 104 0 7 -7 19 -15 26 -12 10 -15 10 -15 -4z"/>
<path d="M2281 4249 c-32 -13 -24 -17 21 -11 21 2 35 8 32 13 -6 11 -22 11
-53 -2z"/>
<path d="M870 4236 c0 -9 -5 -16 -12 -16 -9 0 -9 -3 -1 -11 6 -6 16 -8 22 -5
14 9 14 33 1 41 -5 3 -10 -1 -10 -9z"/>
<path d="M2113 4223 c-7 -2 -13 -9 -13 -14 0 -6 8 -6 19 1 11 5 27 7 37 3 12
-4 15 -3 10 5 -7 12 -31 14 -53 5z"/>
<path d="M2510 4216 c-10 -13 -7 -13 20 -3 29 11 34 10 52 -13 14 -17 18 -33
14 -55 -5 -24 -4 -27 5 -12 33 56 -50 132 -91 83z"/>
<path d="M4250 4206 c0 -18 60 -38 75 -25 13 13 -3 26 -42 34 -26 5 -33 3 -33
-9z"/>
<path d="M2275 4181 c-3 -5 -1 -12 5 -16 12 -7 30 2 30 16 0 12 -27 12 -35 0z"/>
<path d="M2540 4175 c-11 -13 -15 -13 -22 -3 -7 9 -8 7 -6 -7 2 -14 12 -21 33
-22 17 -1 22 1 12 4 -18 4 -18 6 -1 24 9 10 12 19 7 19 -6 0 -16 -7 -23 -15z"/>
<path d="M3321 4176 c-45 -16 -52 -36 -14 -36 35 0 72 24 58 38 -6 6 -23 5
-44 -2z"/>
<path d="M2135 4170 c-7 -12 2 -30 16 -30 12 0 12 27 0 35 -5 3 -12 1 -16 -5z"/>
<path d="M2214 4157 c2 -20 -3 -32 -18 -43 l-21 -15 21 -17 c19 -16 20 -20 6
-40 -19 -29 -64 -29 -85 1 -15 20 -15 19 -2 -22 35 -103 89 -151 169 -151 77
0 134 39 211 143 l28 38 -31 29 c-18 16 -32 37 -32 47 -1 13 -5 11 -16 -9 -24
-45 -102 -75 -120 -47 -4 7 -24 9 -52 6 -25 -3 -53 0 -63 6 -16 10 -15 12 3
27 18 14 19 20 9 46 l-11 29 4 -28z m86 -116 c0 -18 -25 -31 -62 -31 -27 0
-23 38 5 43 47 9 57 7 57 -12z"/>
<path d="M2250 4041 c-17 -5 -21 -9 -13 -14 12 -7 53 7 53 18 0 6 -7 5 -40 -4z"/>
<path d="M1233 4043 c20 -2 54 -2 75 0 20 2 3 4 -38 4 -41 0 -58 -2 -37 -4z"/>
<path d="M1649 4033 c-13 -16 -12 -17 3 -4 23 17 48 7 48 -19 0 -26 -25 -36
-48 -19 -16 12 -15 11 1 -6 14 -16 21 -17 35 -9 22 14 27 41 12 59 -16 20 -35
19 -51 -2z"/>
<path d="M3526 3995 c-3 -8 -12 -12 -19 -9 -20 7 -29 -23 -12 -40 19 -18 19
-26 1 -26 -21 0 -30 -20 -17 -33 6 -6 11 -24 11 -39 0 -24 5 -29 44 -39 39
-10 45 -15 50 -44 8 -39 32 -63 74 -71 47 -9 80 3 97 36 17 33 23 28 -59 45
-18 4 -23 10 -19 25 6 23 23 24 73 7 l35 -13 2 33 c2 26 -1 33 -15 33 -9 1
-30 7 -47 16 l-30 14 28 -5 c15 -3 38 -8 51 -11 18 -4 25 -1 29 17 7 27 -2 35
-55 43 -29 5 -38 11 -36 23 2 13 -13 20 -67 34 -86 23 -111 23 -119 4z"/>
<path d="M4140 3996 c0 -13 49 -56 64 -56 14 0 4 28 -17 48 -27 25 -47 28 -47
8z"/>
<path d="M2190 3785 c-19 -7 -94 -31 -165 -54 -73 -23 -152 -54 -178 -72 -63
-42 -157 -145 -205 -227 -42 -71 -166 -340 -177 -383 -5 -21 15 -69 93 -226
54 -110 102 -211 105 -224 3 -13 9 -20 13 -17 3 4 -14 52 -39 108 l-46 101 37
-23 c59 -36 186 -108 192 -108 3 0 5 -283 4 -630 -1 -610 0 -630 18 -630 10 0
21 -7 24 -15 3 -8 1 -128 -5 -267 -6 -139 -13 -360 -17 -490 l-6 -236 339 -4
c186 -2 341 -1 345 2 4 3 12 97 18 210 17 336 21 390 31 384 5 -3 9 -47 9 -97
0 -93 17 -417 26 -472 l4 -30 322 0 321 0 -7 299 c-5 242 -9 301 -21 313 -8 8
-15 26 -16 41 l-1 27 -10 -30 c-13 -35 -25 -45 -55 -45 -22 0 -26 7 -38 68
l-7 33 -34 -46 c-25 -32 -42 -45 -59 -45 -32 0 -33 24 -1 116 40 116 46 125
153 234 l103 105 -21 220 c-58 613 -86 839 -112 910 -44 121 -47 114 68 147
55 16 154 42 220 60 66 17 121 32 123 33 2 2 -11 63 -28 136 -87 374 -125 518
-146 555 -28 50 -106 105 -198 139 -72 27 -285 82 -441 114 -55 12 -109 24
-121 27 -17 5 -22 0 -27 -23 -26 -129 -235 -156 -291 -38 -9 19 -21 35 -26 35
-6 0 -10 7 -10 15 0 18 -13 18 -60 0z"/>
<path d="M890 3741 c26 -37 87 -90 132 -114 l33 -18 -30 23 c-16 13 -57 49
-89 81 -33 31 -61 57 -63 57 -3 0 5 -13 17 -29z"/>
<path d="M840 3723 c0 -11 133 -144 168 -168 12 -9 22 -11 22 -6 0 6 -4 11 -8
11 -5 0 -48 39 -95 86 -48 47 -87 82 -87 77z"/>
<path d="M890 3585 c35 -36 68 -65 72 -65 4 0 -22 29 -58 65 -36 36 -68 65
-72 65 -3 0 23 -29 58 -65z"/>
<path d="M1180 3574 c-21 -53 -20 -79 0 -119 12 -23 18 -30 14 -15 -14 57 -16
91 -5 121 14 41 5 52 -9 13z"/>
<path d="M585 3444 l-30 -26 33 22 c17 12 32 23 32 26 0 7 -4 5 -35 -22z"/>
<path d="M3745 3453 c39 -8 90 -23 114 -34 55 -24 67 -24 21 1 -42 21 -147 50
-181 49 -13 0 8 -7 46 -16z"/>
<path d="M502 3363 c-30 -39 -71 -102 -60 -93 11 9 98 130 94 130 -2 0 -18
-17 -34 -37z"/>
<path d="M3974 3365 c167 -100 264 -205 323 -345 12 -30 23 -48 23 -39 0 36
-74 161 -136 228 -60 65 -230 191 -257 191 -6 0 15 -16 47 -35z"/>
<path d="M399 3199 c-16 -34 -29 -63 -27 -65 2 -2 18 26 36 61 17 36 30 65 27
65 -3 0 -19 -27 -36 -61z"/>
<path d="M1162 3088 c14 -108 46 -284 47 -263 2 30 -41 309 -49 318 -4 4 -3
-21 2 -55z"/>
<path d="M336 3034 c-4 -14 -5 -28 -3 -31 3 -2 8 8 11 23 4 14 5 28 3 31 -3 2
-8 -8 -11 -23z"/>
<path d="M322 2970 c0 -14 2 -19 5 -12 2 6 2 18 0 25 -3 6 -5 1 -5 -13z"/>
<path d="M4327 2899 c3 -37 2 -93 -2 -124 -6 -52 -8 -56 -28 -50 -42 13 -122
17 -147 7 -19 -8 -12 -9 31 -5 54 5 129 -10 129 -26 0 -5 -16 -29 -35 -53 -38
-51 -104 -88 -154 -88 -36 0 -86 23 -94 42 -4 10 -6 10 -6 0 -1 -19 60 -52 98
-52 66 0 139 50 192 130 l16 24 45 -42 c25 -24 59 -67 74 -97 16 -29 30 -52
32 -50 10 10 -58 112 -103 153 -45 42 -50 50 -44 77 9 41 8 154 -1 190 -5 19
-6 5 -3 -36z"/>
<path d="M313 2840 c0 -30 2 -43 4 -27 2 15 2 39 0 55 -2 15 -4 2 -4 -28z"/>
<path d="M1211 2785 c-1 -43 49 -345 63 -379 21 -50 28 -45 10 7 -8 23 -26
116 -40 207 -25 168 -32 200 -33 165z"/>
<path d="M321 2734 c0 -11 3 -14 6 -6 3 7 2 16 -1 19 -3 4 -6 -2 -5 -13z"/>
<path d="M4066 2691 c-16 -11 -34 -28 -39 -38 -6 -11 4 -6 24 12 19 16 38 33
44 37 18 15 0 8 -29 -11z"/>
<path d="M340 2676 c0 -17 63 -125 84 -143 21 -18 21 -18 3 3 -10 12 -33 50
-52 85 -19 35 -35 60 -35 55z"/>
<path d="M688 2583 c12 -2 30 -2 40 0 9 3 -1 5 -23 4 -22 0 -30 -2 -17 -4z"/>
<path d="M603 2565 c-18 -8 -33 -16 -33 -19 0 -3 15 1 33 8 17 7 39 16 47 19
13 5 13 5 0 6 -8 0 -30 -6 -47 -14z"/>
<path d="M768 2564 c29 -20 28 -55 -3 -93 -33 -39 -83 -54 -156 -49 -33 2 -54
1 -47 -4 25 -15 121 -8 163 12 42 20 75 63 75 97 0 20 -29 53 -46 53 -4 0 2
-7 14 -16z"/>
<path d="M520 2504 l-31 -36 -27 23 -27 24 27 -30 c21 -24 25 -34 16 -48 -5
-10 -8 -21 -5 -24 3 -2 8 5 12 16 7 23 20 27 30 11 3 -5 11 -10 17 -10 5 0 0
8 -12 18 l-23 18 33 37 c18 20 30 37 27 37 -3 0 -19 -16 -37 -36z"/>
<path d="M4481 2484 c0 -11 3 -14 6 -6 3 7 2 16 -1 19 -3 4 -6 -2 -5 -13z"/>
<path d="M461 2384 c0 -11 3 -14 6 -6 3 7 2 16 -1 19 -3 4 -6 -2 -5 -13z"/>
<path d="M4481 2354 c0 -11 3 -14 6 -6 3 7 2 16 -1 19 -3 4 -6 -2 -5 -13z"/>
<path d="M453 2305 c0 -27 2 -38 4 -22 2 15 2 37 0 50 -2 12 -4 0 -4 -28z"/>
<path d="M462 2230 c0 -14 2 -19 5 -12 2 6 2 18 0 25 -3 6 -5 1 -5 -13z"/>
<path d="M3873 2243 c-7 -2 -13 -9 -13 -15 0 -7 5 -6 14 1 20 17 48 2 44 -23
-2 -15 -10 -21 -30 -21 -14 1 -24 -3 -22 -7 15 -24 64 2 64 34 0 14 -29 40
-42 37 -2 0 -9 -3 -15 -6z"/>
<path d="M491 2150 c12 -26 88 -110 100 -110 3 0 -15 21 -40 48 -25 26 -52 56
-59 67 -11 17 -11 17 -1 -5z"/>
<path d="M819 1978 c-42 -35 -85 -68 -95 -75 -15 -9 24 -12 189 -12 114 -1
207 1 207 3 0 2 -15 13 -32 25 -18 11 -64 43 -102 71 -38 27 -75 50 -80 50 -6
0 -45 -28 -87 -62z"/>
<path d="M565 1778 c-5 -6 -33 -31 -62 -57 l-51 -46 69 -58 69 -59 0 116 c0
112 -4 127 -25 104z"/>
<path d="M1278 1685 c-4 -119 0 -135 27 -104 11 12 41 39 67 59 l46 37 -51 39
c-28 21 -59 45 -69 52 -15 11 -17 5 -20 -83z"/>
<path d="M823 1733 c65 -2 168 -2 230 0 62 1 9 3 -118 3 -126 0 -177 -2 -112
-3z"/>
<path d="M823 1673 c65 -2 168 -2 230 0 62 1 9 3 -118 3 -126 0 -177 -2 -112
-3z"/>
<path d="M823 1613 c65 -2 168 -2 230 0 62 1 9 3 -118 3 -126 0 -177 -2 -112
-3z"/>
<path d="M823 1553 c65 -2 168 -2 230 0 62 1 9 3 -118 3 -126 0 -177 -2 -112
-3z"/>
<path d="M4045 1535 c-41 -15 -64 -37 -95 -95 -40 -76 -34 -161 15 -217 l24
-28 -16 57 c-22 78 -6 154 44 208 40 45 109 75 150 66 21 -5 24 -4 12 3 -29
19 -93 21 -134 6z"/>
<path d="M4263 1519 c29 -49 39 -105 26 -151 -13 -52 -33 -76 -77 -95 -38 -16
-34 -33 7 -33 17 0 42 13 65 33 68 59 67 160 -1 234 -24 26 -30 30 -20 12z"/>
<path d="M823 1493 c65 -2 168 -2 230 0 62 1 9 3 -118 3 -126 0 -177 -2 -112
-3z"/>
<path d="M4169 1479 c-12 -36 -13 -149 -1 -161 18 -18 24 -4 29 69 4 55 2 71
-11 82 -9 7 -17 12 -17 10z"/>
<path d="M4085 1440 c-42 -16 -73 -86 -54 -121 15 -29 27 -23 35 16 3 19 15
46 26 60 25 32 21 55 -7 45z"/>
<path d="M4083 1265 c-36 -25 -33 -35 7 -35 34 0 65 31 48 48 -15 15 -17 15
-55 -13z"/>
<path d="M4130 1144 c-16 -10 -44 -14 -79 -11 -53 4 -53 4 -25 -11 59 -32 183
-10 160 27 -9 14 -25 13 -56 -5z"/>
<path d="M3202 1100 c0 -19 2 -27 5 -17 2 9 2 25 0 35 -3 9 -5 1 -5 -18z"/>
<path d="M3273 1095 c0 -22 2 -30 4 -17 2 12 2 30 0 40 -3 9 -5 -1 -4 -23z"/>
<path d="M3352 1090 c0 -19 2 -27 5 -17 2 9 2 25 0 35 -3 9 -5 1 -5 -18z"/>
<path d="M1496 752 c-2 -4 8 -8 22 -7 23 0 27 -4 27 -27 -1 -14 3 -24 7 -22
12 8 10 38 -4 52 -14 14 -44 16 -52 4z"/>
<path d="M1480 723 c0 -6 8 -17 18 -24 16 -13 16 -13 2 6 -8 11 -16 22 -17 24
-2 2 -3 0 -3 -6z"/>
</g>
</svg>
